<?xml version="1.0" encoding="UTF-8"?>
<svg id="Capa_2" data-name="Capa 2" xmlns="http://www.w3.org/2000/svg" viewBox="0 0 1186.16 355.32">
  <g id="Capa_1-2" data-name="Capa 1">
    <g>
      <path d="m291.63,223.75c0,22.6-4.83,43.87-13.35,62.5,0,.02,0,.03-.02.04-4.08,8.92-9.01,17.23-14.66,24.78-17.09,22.87-40.79,38.83-67.62,43.82l-11.71-17.56-25.85-38.77c6.72-.79,13.27-2.02,19.63-3.64,16.34-4.17,31.36-10.98,44.4-19.83h0c8.93-6.07,16.92-13.1,23.77-20.91,8.5-9.7,15.24-20.59,19.79-32.34,2.84-7.31,4.84-14.95,5.89-22.83.03-.21.06-.41.08-.62,0,0,0-.01,0-.02,0-.05.01-.09.02-.14.54-4.08.82-8.25.82-12.48,0-5.83-.53-11.52-1.54-17.06-.07-.37-.14-.75-.21-1.12,0-.04-.01-.08-.02-.11,0-.03-.01-.06-.02-.09,0-.03-.01-.06-.02-.09-.04-.21-.08-.41-.12-.62-1.2-6.05-2.95-11.94-5.22-17.63-4.54-11.39-11.12-21.96-19.38-31.4,7.81,6.87,14.83,14.9,20.89,23.86,8.87,13.12,15.67,28.25,19.81,44.71h0c1.57,6.25,2.76,12.69,3.54,19.29.7,5.97,1.07,12.07,1.07,18.27Z"/>
      <path d="m348.44,185.75v.11c0,.49,0,.98-.01,1.47-.36,39.9-14.42,76.53-37.69,105.41-27.65,34.29-68.3,57.65-114.47,62.58l-.29-.43c26.83-4.99,50.53-20.95,67.62-43.82,5.65-7.56,10.58-15.86,14.66-24.78.02,0,.04-.02.06-.03h-.04c8.52-18.64,13.35-39.91,13.35-62.51,0-6.2-.37-12.3-1.07-18.27-.78-6.59-1.96-13.03-3.54-19.28h0c-4.14-16.46-10.94-31.59-19.81-44.71-6.06-8.96-13.08-16.99-20.89-23.86,0,0,0,0-.01-.01-9.69-8.54-20.59-15.3-32.35-19.88-11.3-4.41-23.4-6.79-35.97-6.79s-25.32,2.51-36.88,7.15c-11.04,4.42-21.3,10.77-30.51,18.71,6.7-7.53,14.47-14.31,23.12-20.19,13.02-8.86,28.03-15.66,44.35-19.83,6.32-1.61,12.83-2.84,19.51-3.63,6-.72,12.12-1.08,18.35-1.08,22.59,0,43.87,4.86,62.48,13.41,0,0,.01,0,.02,0,9.07,4.17,17.51,9.22,25.16,15.03,22.59,17.11,38.32,40.74,43.23,67.45,1.07,5.79,1.62,11.73,1.63,17.78Z"/>
      <path d="m190.06,56.97c-6.68.79-13.19,2.01-19.51,3.63-16.32,4.17-31.33,10.97-44.35,19.83-8.65,5.88-16.42,12.66-23.12,20.19h0c-8.73,9.8-15.64,20.85-20.31,32.79-2.95,7.54-5.01,15.44-6.04,23.59-.02.15-.04.3-.06.45-.05.4-.1.81-.15,1.22-.05.4-.09.81-.13,1.21-.04.4-.08.79-.11,1.2-.03.34-.06.68-.09,1.03-.02.2-.03.4-.05.59v.05c-.03.35-.05.7-.07,1.05v.04c-.03.48-.05.97-.08,1.45-.01.23-.02.46-.03.69,0,.23-.02.46-.02.69,0,.05,0,.09,0,.14,0,.21-.01.42-.02.63,0,.26,0,.52-.01.78,0,.46-.01.91-.01,1.37v.11c0,.41,0,.81,0,1.22,0,.38.02.75.02,1.13.01.41.02.81.04,1.22.01.36.03.72.05,1.07.51,11.07,2.87,21.74,6.82,31.78,4.68,11.9,11.6,22.93,20.31,32.7-8.22-7.04-15.6-15.33-21.92-24.64h0c-8.82-12.97-15.6-27.89-19.78-44.13-1.66-6.44-2.91-13.09-3.72-19.91-.71-5.98-1.08-12.1-1.08-18.31,0-22.58,4.84-43.84,13.37-62.45.08-.04.16-.08.24-.11l-.17-.03c4.08-8.88,9.01-17.16,14.66-24.69C101.89,21.65,125.66,5.7,152.58.75l11.5,17.25,25.98,38.97Z"/>
      <path d="m238.72,237.98c-6.85,7.81-14.84,14.84-23.77,20.91-6.52,4.43-13.53,8.35-20.96,11.67-7.43,3.34-15.27,6.08-23.45,8.17-6.35,1.62-12.91,2.84-19.62,3.64h0c-5.97.7-12.07,1.07-18.27,1.07-22.58,0-43.85-4.84-62.47-13.39-.05-.02-.09-.04-.14-.06-8.74-4.02-16.91-8.87-24.34-14.41C22.65,238.41,6.58,214.54,1.62,187.49c-.98-5.34-1.52-10.8-1.61-16.35,0-.49-.01-.99-.01-1.47v-.11c0-.51.01-1.02.02-1.53v-.26c.41-39.76,14.41-76.26,37.58-105.06C65.23,28.36,105.89,4.96,152.08,0l.5.75c-26.92,4.95-50.69,20.9-67.85,43.76-5.64,7.53-10.57,15.81-14.65,24.69-.03.05-.05.1-.07.15-8.54,18.61-13.38,39.87-13.38,62.44,0,6.22.37,12.33,1.08,18.31.81,6.82,2.06,13.47,3.72,19.91,4.18,16.24,10.96,31.16,19.78,44.12h0c6.32,9.32,13.7,17.61,21.92,24.65,9.44,8.09,20,14.52,31.34,18.92,11.31,4.39,23.41,6.77,35.99,6.77s25.29-2.5,36.85-7.11c5.7-2.26,11.19-5.04,16.44-8.29s10.25-6.96,14.97-11.09Z"/>
      <g>
        <path d="m600.83,276.63c-.53,14.95-11.1,25.3-25.77,25.3-15.4,0-26.2-11.36-26.2-26.87s11.14-26.97,26.16-26.97c12.28,0,22.65,7.73,24.92,18.47h-2.51c-2.25-9.38-11.5-16.05-22.37-16.05-13.69,0-23.7,10.35-23.7,24.55s9.79,24.45,23.7,24.45c12.64,0,21.9-8.33,23.15-20.51h-25.68v-2.36h28.3Z"/>
        <path d="m643.29,286.05h-28.9l-6.49,15.21h-2.62l22.28-52.51h2.12l22.88,52.51h-2.66l-6.6-15.21Zm-27.94-2.31h26.96l-13.66-31.43-13.31,31.43Z"/>
        <path d="m718.69,301.26l-8.41-47.8-20.1,45.41h-.92l-20.05-45.36-8.48,47.74h-2.49l9.28-52.51h2.17l19.97,45.61,20.1-45.61h2.21l9.19,52.51h-2.49Z"/>
        <path d="m762.28,298.87v2.38h-29.07v-52.51h28.24v2.36h-25.78v21.55h23.83v2.33h-23.83v23.89h26.61Z"/>
        <path d="m795.14,278.35l13.7,22.91h-2.79l-13.61-22.78h-16.11v22.78h-2.46v-52.51h19.07c9.23,0,15.96,6.24,15.96,14.91,0,7.87-5.68,13.78-13.76,14.69Zm-18.81-2.24h16.52c7.97,0,13.56-5.25,13.56-12.47s-5.64-12.53-13.56-12.53h-16.52v25Z"/>
        <path d="m838.3,285.82h2.49c0,8.27,6.36,13.63,15.92,13.63,8.72,0,14.83-4.99,14.83-12.34,0-8.33-7.37-9.92-15.23-11.66-8.16-1.78-16.88-3.73-16.88-13.46,0-8.42,6.66-13.86,16.88-13.86s16.35,5.79,16.35,14.61h-2.44c0-7.43-5.61-12.23-13.95-12.23s-14.38,4.48-14.38,11.4c0,7.95,7.43,9.54,15.15,11.23,8.31,1.86,17.01,3.83,17.01,13.95,0,8.93-7.22,14.78-17.33,14.78-11.06,0-18.43-6.36-18.43-16.05Z"/>
        <path d="m915.68,251.09h-17.12v50.16h-2.46v-50.16h-17.12v-2.34h36.7v2.34Z"/>
        <path d="m918.85,275.06c0-15.41,11.29-27.1,27.08-27.1s27.08,11.63,27.08,27.1-11.29,26.98-27.08,26.98-27.08-11.63-27.08-26.98Zm51.66,0c0-14.08-10.26-24.68-24.58-24.68s-24.58,10.67-24.58,24.68,10.26,24.57,24.58,24.57,24.58-10.54,24.58-24.57Z"/>
        <path d="m1006.52,278.35l13.7,22.91h-2.79l-13.61-22.78h-16.11v22.78h-2.46v-52.51h19.07c9.23,0,15.96,6.24,15.96,14.91,0,7.87-5.68,13.78-13.76,14.69Zm-18.81-2.24h16.52c7.97,0,13.56-5.25,13.56-12.47s-5.64-12.53-13.56-12.53h-16.52v25Z"/>
        <path d="m1061.8,298.87v2.38h-29.07v-52.51h28.24v2.36h-25.78v21.55h23.83v2.33h-23.83v23.89h26.61Z"/>
      </g>
      <g>
        <path d="m492.85,214.93c-39.88,0-68.34-27.25-68.34-65.17s28.46-65.16,68.34-65.16,68.13,27.15,68.13,65.16-28.36,65.16-68.13,65.16h0Zm0-31.8c18.88,0,32.55-13.95,32.55-33.36s-13.67-33.36-32.55-33.36-32.76,14.05-32.76,33.36,13.87,33.36,32.76,33.36h0Z"/>
        <path d="m625.02,173.83h-12.39v37.96h-34.18v-124.06h53.77c26.74,0,46.13,17.97,46.13,43.91,0,15.22-7.44,27.7-19.69,35.03l24.63,45.12h-38.15l-20.13-37.96Zm-12.39-28.79h15.61c9.55,0,15.05-5.75,15.05-13.51s-5.5-13.43-15.05-13.43h-15.61v26.94Z"/>
        <path d="m698.25,87.73h34.63v124.06h-34.63v-124.06Z"/>
        <path d="m899.22,87.73h34.63v124.06h-34.63v-124.06Z"/>
        <path d="m1068.55,87.73v124.06h-28.26l-49.29-67.32v67.32h-33.12v-124.06h29.91l47.64,65.09v-65.09h33.12Z"/>
        <path d="m1086.54,171.73h35.26c0,8.86,6.84,13.17,14.63,13.17,7.16,0,14-3.81,14-10.58,0-7.78-9.66-10.04-21.47-12.9-17.93-4.46-40.82-9.95-40.82-38.19,0-24.43,17.95-38.43,47.2-38.43s46.8,15.27,46.8,40.51h-34.28c0-7.85-5.85-11.52-12.93-11.52-6.09,0-11.94,2.64-11.94,8.43,0,7.05,9.35,9.38,21.03,12.31,18.26,4.71,42.14,10.81,42.14,39.14s-20.82,41.16-49.63,41.16c-30.36,0-49.99-16.05-49.99-43.09Z"/>
        <path d="m813.93,167.04h30.81c-3.9,9.57-15.08,15.88-28.13,15.88-18.79,0-31.11-13.44-31.11-33.05s12.52-33.26,31.11-33.26c12.39,0,23.28,6.45,27.94,16.53l24.58-24.58c-11.82-14.77-30.99-23.96-52.83-23.96-38.22,0-65.79,27.52-65.79,65.27s28.08,65.06,66.09,65.06,65.35-28.84,65.35-69.44h-68.03v21.55Z"/>
      </g>
    </g>
  </g>
</svg>