<?xml version="1.0" encoding="UTF-8"?>
<svg id="Capa_2" data-name="Capa 2" xmlns="http://www.w3.org/2000/svg" viewBox="0 0 151.9 151.9">
  <defs>
    <style>
      .cls-1 {
        fill: #fc560b;
      }
    </style>
  </defs>
  <g id="Capa_1-2" data-name="Capa 1">
    <g>
      <path class="cls-1" d="m75.95,0C34,0,0,34,0,75.95s34,75.95,75.95,75.95,75.95-34,75.95-75.95S117.9,0,75.95,0Zm0,142.96c-37.01,0-67.01-30-67.01-67.01S38.94,8.94,75.95,8.94s67.01,30,67.01,67.01-30,67.01-67.01,67.01Z"/>
      <path class="cls-1" d="m110.3,69.63l-20.28-21.88c-1.7-1.83-4.6-1.83-6.3,0h0c-1.53,1.65-1.53,4.19,0,5.84l16.58,17.88h-60.09c-2.47,0-4.47,2-4.47,4.47h0c0,2.47,2,4.47,4.47,4.47h60.09l-16.58,17.88c-1.53,1.65-1.53,4.19,0,5.84h0c1.7,1.83,4.6,1.83,6.3,0l20.28-21.88,5.86-6.32-5.86-6.32Z"/>
    </g>
  </g>
</svg>