<?xml version="1.0" encoding="UTF-8"?>
<svg id="Capa_2" data-name="Capa 2" xmlns="http://www.w3.org/2000/svg" viewBox="0 0 142.98 133.99">
  <g id="Capa_1-2" data-name="Capa 1">
    <g>
      <path d="m142.73,113.54l-7.02-40.18-2.28-13.05-3.27-18.72c-1.48-8.47-9.15-14.68-18.13-14.68h-13.72V8.84c0-4.88-3.96-8.84-8.85-8.84h-35.92c-4.88,0-8.84,3.96-8.84,8.84v18.07h-13.73c-8.99,0-16.65,6.21-18.13,14.67l-3.28,18.73-2.28,13.05L.26,113.54c-1.87,10.71,6.77,20.46,18.13,20.46h106.2c11.36,0,20-9.75,18.13-20.46ZM53.74,9.04h35.52v17.66h-35.52V9.04Zm78.26,112.57c-1.78,2.13-4.48,3.34-7.41,3.34H18.39c-2.93,0-5.63-1.21-7.42-3.35-.91-1.09-2.36-3.37-1.81-6.51l6.47-37.02,2-11.42,4.11-23.51c.73-4.17,4.61-7.19,9.22-7.19h81.06c4.62,0,8.49,3.02,9.23,7.19l4.1,23.51,2,11.41,6.47,37.03c.55,3.14-.9,5.43-1.82,6.52Z"/>
      <path d="m40.22,44.66c-2.47,0-4.47,2-4.47,4.47s2,4.47,4.47,4.47,4.47-2,4.47-4.47-2-4.47-4.47-4.47Z"/>
      <path d="m71.5,44.66c-2.47,0-4.47,2-4.47,4.47s2,4.47,4.47,4.47,4.47-2,4.47-4.47-2-4.47-4.47-4.47Z"/>
      <path d="m102.76,44.66c-2.47,0-4.47,2-4.47,4.47s2,4.47,4.47,4.47,4.47-2,4.47-4.47-2-4.47-4.47-4.47Z"/>
    </g>
  </g>
</svg>