<?xml version="1.0" encoding="UTF-8"?>
<svg id="Capa_2" data-name="Capa 2" xmlns="http://www.w3.org/2000/svg" viewBox="0 0 151.9 134.03">
  <defs>
    <style>
      .cls-1 {
        fill: #fff;
      }
    </style>
  </defs>
  <g id="Capa_1-2" data-name="Capa 1">
    <g>
      <path class="cls-1" d="m72.74,131.32c-.4.36-.82.68-1.25.97-2.64,1.76-5.95,2.2-8.94,1.22-1.22-.4-2.39-1.02-3.43-1.9l-5.5-4.62-2.27-1.9-6.67-5.6-3.98-3.33-4.95-4.16-5.69-4.78-3.25-2.72-7.4-6.21-1.54-1.29-8.93-7.5v-.15h-.18l-5.06-4.25c-1.53-1.28-2.59-2.92-3.17-4.68-.35-1.06-.53-2.17-.53-3.28v-.08c.03-1.94.6-3.88,1.72-5.58.22-.32.45-.64.71-.95l6.51-7.76.19-.22,7.49-8.94,1.25-1.49,6.25-7.44,2.69-3.21,4.81-5.73,4.13-4.92,3.37-4.02,5.56-6.63,1.93-2.3,7.01-8.35.49-.59,4.4-5.24c1.11-1.31,2.51-2.28,4.04-2.91,1.24-.51,2.58-.78,3.93-.78.84,0,1.68.11,2.52.32l2.49.64,1.07.27-1.07,1.28-5.41,6.42-3.53,4.19-3.99,4.75-4.94,5.87-2.58,3.06-6.36,7.56-1.16,1.38-7.52,8.94h-.25v.3l-7.27,8.63-1.67,1.99-5.85,6.95-3.09,3.67-4.42,5.26-4.1,4.87c-.46.54-.38,1.36.16,1.82l2.67,2.25,5.69,4.78,4.94,4.15,4,3.36,6.63,5.58,2.31,1.94,8.32,6.99.61.52,8.94,7.51,1.08.91,7.85,6.6,2.78,2.33,6.16,5.18,1.25,1.05Z"/>
      <path class="cls-1" d="m151.33,53.61c-.11-.33-.22-.67-.37-.99l-3.66-7.94-4.11-8.94h-.22v-.48l-3.89-8.46-4.12-8.93-.92-2.01h-.01c-1.3-2.82-3.81-4.92-6.81-5.69l-2.12-.54-2.71-.7-6.23-1.59-8.93-2.29-8.94-2.29-8.93-2.29-.57-.15c-.85-.22-1.71-.32-2.56-.32-2.07,0-4.09.62-5.81,1.78-.78.53-1.5,1.17-2.12,1.91l-4.4,5.24-2.41,2.88-5.09,6.06-3.85,4.59-3.65,4.34-5.28,6.3-2.22,2.64-6.72,8.01-.77.93-7.5,8.93-.66.79-6.84,8.15-2.1,2.5-4.6,5.48c-.26.31-.49.63-.7.95-1.79,2.7-2.15,6-1.19,8.94.58,1.76,1.64,3.4,3.17,4.68l3.32,2.79,1.74,1.46,7.2,6.04,3.45,2.9,5.48,4.6,5.17,4.33,3.77,3.16,6.87,5.78,2.06,1.72,8.59,7.21h.35v.29l7.42,6.23c.48.4.99.74,1.51,1.05,1.57.89,3.3,1.35,5.03,1.37h.12c1.29,0,2.57-.25,3.79-.72,1.55-.61,2.97-1.61,4.12-2.98l4.39-5.24.42-.49,7.08-8.44,1.86-2.21,5.64-6.73,3.29-3.92,4.21-5.01,4.73-5.64,2.77-3.3,6.16-7.34,1.34-1.59,7.5-8.94.1-.12,6.52-7.77c.28-.33.52-.68.75-1.04,1.09-1.7,1.66-3.64,1.66-5.61v-.07c0-1.1-.21-2.2-.57-3.26Zm-8.77,4.16l-4.01,4.78-4.52,5.38-2.98,3.55-5.95,7.1-1.54,1.84-7.4,8.81v.12h-.1l-7.5,8.94-1.33,1.59-6.17,7.34-2.77,3.31-4.72,5.63-4.21,5.01-2.81,3.35c-.34.4-.77.46-1,.46-.31,0-.59-.1-.83-.3l-4.3-3.6-5.86-4.92-3.07-2.58-7.57-6.36-1.37-1.14-8.93-7.5-.35-.29-8.59-7.21-2.06-1.73-6.87-5.77-3.78-3.16-2.67-2.25c-.55-.46-.62-1.28-.16-1.82l4.09-4.87,2.52-3,4.97-5.93,3.96-4.72,3.54-4.22,5.4-6.43,2.1-2.5,6.83-8.15.67-.79,7.5-8.94.77-.91,6.72-8.02,2.21-2.63,4.81-5.73c.24-.3.61-.47.99-.47.11,0,.22.02.32.04l2.82.72,8.93,2.29,8.94,2.29,8.93,2.29,4.67,1.2,4.14,1.06s.08.03.13.05c.32.12.58.35.73.67l3.29,7.15,4.11,8.94.8,1.74,3.31,7.2,4.11,8.93,1.29,2.79c.21.45.14.99-.18,1.37Z"/>
      <path class="cls-1" d="m116.64,62.55c-.12-.92-.28-1.83-.48-2.73-.48-2.16-1.18-4.24-2.07-6.21-1.5-3.32-3.55-6.33-6.03-8.93-.27-.29-.55-.57-.83-.85-2.6-2.53-5.61-4.61-8.94-6.15-1.72-.8-3.53-1.46-5.4-1.94-1.15-.3-2.33-.52-3.53-.69-1.46-.21-2.95-.32-4.47-.32s-3.01.11-4.47.32c-1.2.17-2.38.39-3.53.69-1.88.48-3.68,1.14-5.4,1.94-3.33,1.54-6.35,3.63-8.94,6.15-.28.28-.56.56-.83.85-2.48,2.6-4.53,5.61-6.03,8.93-.9,1.98-1.59,4.06-2.07,6.22-.2.89-.36,1.8-.48,2.72-.19,1.38-.29,2.79-.29,4.22,0,1.6.12,3.17.35,4.71.11.75.25,1.5.42,2.23.52,2.34,1.29,4.59,2.29,6.71,1.58,3.33,3.71,6.35,6.28,8.93l.36.36c2.59,2.52,5.61,4.61,8.94,6.15,2.41,1.12,4.99,1.94,7.69,2.43.41.07.82.14,1.24.2,1.46.2,2.95.32,4.47.32s3.01-.12,4.47-.32c.42-.06.83-.13,1.24-.2,2.7-.49,5.28-1.31,7.69-2.43,3.33-1.54,6.34-3.63,8.94-6.15l.36-.36c2.57-2.58,4.7-5.6,6.28-8.93,1-2.12,1.77-4.37,2.29-6.71.17-.73.31-1.48.42-2.23.23-1.54.35-3.11.35-4.71,0-1.43-.1-2.84-.29-4.22Zm-6.15,8.93c-.57,3.11-1.69,6.03-3.26,8.65v.29h-.18c-2.18,3.54-5.19,6.52-8.76,8.66-.15.1-.31.18-.46.27-2.58,1.49-5.44,2.54-8.47,3.07-1.46.25-2.95.39-4.47.39s-3.02-.14-4.47-.39c-3.03-.53-5.89-1.58-8.47-3.07-.15-.09-.31-.17-.46-.27-3.57-2.14-6.58-5.12-8.77-8.66h-.17v-.29c-1.57-2.62-2.69-5.54-3.26-8.65-.29-1.53-.44-3.1-.44-4.71,0-1.44.12-2.85.35-4.22.52-3.22,1.64-6.23,3.23-8.94.04-.07.08-.14.12-.21,2.13-3.54,5.08-6.54,8.58-8.72.12-.08.24-.16.36-.23,2.7-1.62,5.71-2.77,8.93-3.33,1.45-.25,2.95-.39,4.47-.39s3.01.14,4.47.39c3.21.56,6.23,1.7,8.93,3.33.12.07.24.15.36.23,3.5,2.18,6.45,5.18,8.58,8.72.04.07.08.14.12.21,1.59,2.71,2.71,5.72,3.23,8.94.23,1.37.35,2.78.35,4.22,0,1.61-.16,3.18-.44,4.71Z"/>
      <path class="cls-1" d="m97.93,62.55c-.47-2.2-1.75-4.3-3.78-6l-3.5-2.94-1.29-1.09-4.45-3.73-4.04,4.82-.45.53-7.05,8.41-1.88,2.24-4.47,5.32,1.63,1.37,2.84,2.38,1.4,1.18,2.99-3.56,2.49-2.96,2.05,1.72.08.07-.08.35v.82h-.17l-1.77,8.25.82.69,1.12.94,4.62,3.88.97-4.82,1.3-6.49c.69.11,1.37.13,2.05.09,2.1-.12,4.08-.97,5.69-2.54.24-.23.48-.47.7-.73,2.09-2.49,2.78-5.43,2.18-8.2Zm-8.19,3.12c-.12.14-.25.27-.38.38-1.12.97-2.69,1-4.16-.23l-2.68-2.25.86-1.02,3.02-3.61,2.69,2.25c.1.09.18.18.27.27.35.34.62.71.8,1.09.51,1.06.35,2.2-.42,3.12Z"/>
    </g>
  </g>
</svg>