<?xml version="1.0" encoding="UTF-8"?>
<svg id="Capa_2" data-name="Capa 2" xmlns="http://www.w3.org/2000/svg" viewBox="0 0 134.03 133.98">
  <g id="Capa_1-2" data-name="Capa 1">
    <path d="m125.09,0c-8.38,0-10.86,7.86-11.14,8.83-.02.07-.03.1-.03.1l-17.86,71.48h-52.74v-.11h-19.83c-7.09-14.66-14.02-40.06-14.44-44.5.03,0,.06,0,.08-.01h34.19v-.1h54.96v-8.94H8.93S0,26.74,0,35.68s17.87,53.67,17.87,53.67h75.96l-4.47,17.87H22.34v.06c-1.56,0-3.07.27-4.47.77-5.18,1.83-8.88,6.77-8.88,12.57,0,7.37,5.98,13.35,13.35,13.35s13.34-5.98,13.34-13.35c0-1.56-.27-3.07-.77-4.46h46.34c-.5,1.4-.78,2.91-.78,4.48,0,7.37,5.98,13.35,13.35,13.35s13.34-5.98,13.34-13.35c0-1.59-.28-3.11-.79-4.52-.25-.69-.55-1.36-.91-1.99-1.36-2.44-3.47-4.4-6.01-5.58-.38-.18-.76-.33-1.16-.47v-.84h0L122.3,11.17s0-.03.03-.1c.14-.43.81-2.14,2.77-2.14h8.94V0h-8.94ZM22.34,125.15c-2.47,0-4.47-2-4.47-4.47s2-4.47,4.47-4.47,4.47,2,4.47,4.47-2,4.47-4.47,4.47Zm71.48.01c-2.47,0-4.47-2-4.47-4.47s2-4.47,4.47-4.47,4.47,2,4.47,4.47-2,4.47-4.47,4.47Z"/>
  </g>
</svg>