<?xml version="1.0" encoding="UTF-8"?>
<svg id="Capa_2" data-name="Capa 2" xmlns="http://www.w3.org/2000/svg" viewBox="0 0 178.71 134.03">
  <g id="Capa_1-2" data-name="Capa 1">
    <g>
      <path d="m8.94,8.94h151.9v35.74h8.93V9.11c0-5.03-4.08-9.11-9.11-9.11H9.11C4.08,0,0,4.08,0,9.11v80.07c0,5.03,4.08,9.11,9.11,9.11h71.31v-8.94H8.94V8.94Z"/>
      <path d="m178.64,87.77v-43.09c0,2.92-3.48,5.5-8.87,7.14-2.6.78-5.63,1.35-8.93,1.62-1.44.12-2.94.18-4.47.18-2.37,0-4.64-.15-6.78-.42t0,0c-8.96-1.15-15.45-4.5-15.49-8.47v-.03h-.2s0,.04,0,.06c-.06,3.94-6.5,7.28-15.4,8.44-2.16.28-4.47.43-6.87.43-12.3,0-22.27-4-22.27-8.93v44.67c0,1.51.16,3,.48,4.47.32,1.51.8,3,1.41,4.47,8.5,20.39,42.78,35.74,42.78,35.74,0,0,39.38-17.64,44.19-40.21.2-.95.34-1.91.42-2.88.04-.52.06-1.05.06-1.58s-.02-1.06-.06-1.58Zm-8.92,2.26s0,.05,0,.08c0,.03,0,.07,0,.1-.05.59-.13,1.16-.25,1.74-1.46,6.81-8.56,14.95-20.02,22.92-5.96,4.15-11.8,7.35-15.42,9.19-3.61-1.85-9.45-5.04-15.42-9.19-8.08-5.62-14-11.32-17.29-16.58-1.39-2.2-2.3-4.32-2.73-6.33-.19-.88-.28-1.75-.28-2.6v-28.21c3.94.92,8.42,1.42,13.32,1.42,2.75,0,5.45-.17,8.03-.51,5.75-.74,10.59-2.22,14.34-4.29,3.07,1.7,6.88,2.99,11.32,3.82l3.73.57c2.37.28,4.83.42,7.33.42,1.53,0,3.02-.05,4.47-.14,3.18-.21,6.14-.64,8.85-1.28v26.99l.03.36c.02.26.03.56.03.86,0,.24,0,.47-.02.68Z"/>
      <polygon points="125.1 98.29 116.16 89.35 107.22 89.35 125.1 107.22 160.84 71.48 151.9 71.48 125.1 98.29"/>
      <rect x="26.81" y="17.87" width="116.16" height="8.93"/>
      <rect x="26.81" y="62.55" width="17.87" height="17.87"/>
    </g>
  </g>
</svg>