<?xml version="1.0" encoding="UTF-8"?>
<svg id="Capa_2" data-name="Capa 2" xmlns="http://www.w3.org/2000/svg" viewBox="0 0 178.75 134.03">
  <g id="Capa_1-2" data-name="Capa 1">
    <g>
      <path d="m.03,107.24h8.91V8.94h98.28v98.29h8.91v-62.55h35.77c17.93,0,17.94,8.93,17.94,8.93h-.04v53.63h8.91v-53.63h.04s.01-17.87-26.85-17.87h0s-35.77,0-35.77,0V8.94h.05c0-4.93-4-8.94-8.94-8.94H8.95C4.01,0,.01,4,.01,8.94h.02v98.3Z"/>
      <path d="m142.98,98.3c-6.61,0-12.39,3.6-15.48,8.94H60.17c-3.09-5.34-8.87-8.94-15.48-8.94s-12.39,3.6-15.48,8.94H0v.41c0,4.69,3.8,8.49,8.49,8.49h18.34v.02c0,9.87,8,17.87,17.86,17.87s17.87-8,17.87-17.87v-.02h62.56v.02c0,9.87,8,17.87,17.86,17.87s17.87-8,17.87-17.87v-.02h9.37c4.69,0,8.49-3.8,8.49-8.49v-.41h-20.25c-3.09-5.34-8.87-8.94-15.48-8.94Zm-89.37,17.85c0,4.92-3.99,8.91-8.92,8.91s-8.91-3.99-8.91-8.91h0c0-4.77,3.75-8.67,8.46-8.91.15,0,.3,0,.46,0s.31,0,.46,0c4.71.24,8.46,4.13,8.46,8.9h0Zm98.29,0c0,4.92-3.99,8.91-8.92,8.91s-8.91-3.99-8.91-8.91h0c0-4.77,3.75-8.67,8.46-8.91.15,0,.3,0,.46,0s.31,0,.46,0c4.71.24,8.46,4.13,8.46,8.9h0Z"/>
      <rect x="17.89" y="53.62" width="53.61" height="8.94"/>
      <polygon points="98.21 58.08 71.59 44.68 71.59 71.48 98.21 58.08"/>
    </g>
  </g>
</svg>