<?xml version="1.0" encoding="UTF-8"?>
<svg id="Capa_2" data-name="Capa 2" xmlns="http://www.w3.org/2000/svg" viewBox="0 0 107.22 134.03">
  <g id="Capa_1-2" data-name="Capa 1">
    <g>
      <path d="m94.51,85.6l.79-12.9c.1-1.73.75-3.38,1.85-4.72l8.2-9.98c2.57-3.13,2.48-7.66-.2-10.69l-8.56-9.67c-1.15-1.3-1.86-2.93-2.03-4.65l-1.26-12.86c-.4-4.02-3.66-7.17-7.7-7.42l-12.9-.79c-1.73-.1-3.38-.75-4.72-1.85L58,1.87c-3.13-2.57-7.66-2.48-10.69.2l-9.67,8.56c-1.3,1.15-2.93,1.86-4.65,2.03l-12.86,1.27c-4.02.4-7.17,3.66-7.42,7.7l-.79,12.89c-.1,1.73-.75,3.38-1.85,4.73L1.87,49.23c-2.57,3.13-2.48,7.66.2,10.69l8.56,9.68c1.15,1.3,1.86,2.93,2.03,4.65l1.27,12.86c.33,3.37,2.68,6.13,5.8,7.08l-10.51,25.32c-1.34,3.23,2.38,6.19,5.24,4.18l10.22-7.18c2.09-1.47,5-.28,5.45,2.22l2.28,12.44c.62,3.42,5.33,3.92,6.67.71l10.8-26.04s.01,0,.02.01c2.33,1.55,5.25,1.78,7.76.73l10.5,25.3c1.33,3.21,6.05,2.71,6.67-.71l2.28-12.44c.46-2.51,3.37-3.69,5.45-2.22l10.22,7.18c2.86,2.01,6.58-.95,5.24-4.18l-10.51-25.34-.36-.86c4-.42,7.13-3.67,7.37-7.69Zm-57.22,27.23c-2.22-3.58-6.17-5.9-10.6-5.9-.91,0-1.81.1-2.68.29l5.08-12.25h.01s5.42.33,5.42.33c1.73.1,3.38.75,4.73,1.85l3.39,2.78-5.35,12.89Zm43.26-5.9c-4.43,0-8.39,2.32-10.6,5.9l-5.02-12.11,4.67-4.13c.46-.41.98-.74,1.52-1.04.53-.14,1.06-.25,1.61-.28l5.42-.33,5.09,12.27c-.87-.19-1.77-.29-2.68-.29Zm5.38-34.79l-.73,11.91-11.89,1.17c-2.08.21-4.06.78-5.91,1.67-1.94.67-3.75,1.68-5.38,3l-1.2.98-7.22,5.91-7.22-5.91-1.2-.98c-2.89-2.36-6.38-3.74-10.11-3.96l-2.2-.13-9.45-.58h-.26s-1.17-11.9-1.17-11.9c-.37-3.71-1.87-7.15-4.34-9.95l-7.91-8.94,7.57-9.23c2.37-2.88,3.74-6.38,3.97-10.11l.73-11.91,11.88-1.17c3.71-.37,7.15-1.87,9.95-4.34l8.94-7.91,9.23,7.57c2.88,2.37,6.38,3.74,10.11,3.97l11.91.73,1.17,11.89c.37,3.71,1.87,7.15,4.35,9.95l7.91,8.94-7.57,9.23c-2.37,2.88-3.74,6.38-3.97,10.11Z"/>
      <path d="m80.48,26.74l-7.91,7.91c-4.85-4.85-11.55-7.85-18.95-7.85-14.8,0-26.8,12-26.8,26.8s12,26.81,26.8,26.81,26.81-12,26.81-26.81c0-5.11-1.43-9.89-3.92-13.95l8.45-8.45-4.47-4.47Zm-8.99,26.87c0,9.87-8,17.87-17.87,17.87s-17.87-8-17.87-17.87,8-17.87,17.87-17.87c4.94,0,9.4,2,12.64,5.23l-12.57,12.58-8.93-8.94-4.46,4.47,13.4,13.4,16.22-16.22c1.01,2.24,1.59,4.72,1.59,7.34Z"/>
    </g>
  </g>
</svg>