<?xml version="1.0" encoding="UTF-8"?>
<svg id="Capa_2" data-name="Capa 2" xmlns="http://www.w3.org/2000/svg" viewBox="0 0 116.15 134.04">
  <g id="Capa_1-2" data-name="Capa 1">
    <g>
      <path d="m98.28,26.81h-17.87V8.94C80.42,0,62.55,0,62.55,0H17.8C17.7.01,0,.03,0,8.94v89.35c0,8.93,17.87,8.94,17.87,8.94h17.87v17.87c0,8.93,17.87,8.94,17.87,8.94h35.74l9.04-9.04,8.71-8.72,9.04-9.05V35.75c0-8.94-17.87-8.94-17.87-8.94ZM17.87,98.19c-3.09-.02-6.96-.71-8.82-1.51V10.54c1.85-.79,5.7-1.47,8.78-1.49h44.72c3.08,0,6.96.7,8.82,1.49v16.27h-17.83c-.1,0-17.8.02-17.8,8.93h0s-17.87,0-17.87,0v8.94h17.87v17.87h-17.87v8.94h17.87v26.7h-17.87Zm89.24,9.04h-8.82s-8.93,0-8.93,8.94v8.83h-35.74c-3.09-.02-6.96-.71-8.82-1.51V37.35c1.85-.79,5.7-1.47,8.78-1.49h17.81s9.04,0,9.04,0h17.87c3.08.01,6.96.7,8.82,1.5v69.87Z"/>
      <path d="m78.96,44.68c-12.33,0-22.34,10-22.34,22.33,0,6.27,2.58,11.93,6.74,15.98l-12.76,19.31,7.45,4.93,12.82-19.39c2.51.98,5.24,1.52,8.09,1.52,12.34,0,22.34-10,22.34-22.34s-10-22.33-22.34-22.33Zm0,35.74c-7.4,0-13.4-6-13.4-13.4s6-13.4,13.4-13.4,13.4,6,13.4,13.4-6,13.4-13.4,13.4Z"/>
    </g>
  </g>
</svg>