<?xml version="1.0" encoding="UTF-8"?>
<svg id="Capa_2" data-name="Capa 2" xmlns="http://www.w3.org/2000/svg" viewBox="0 0 151.9 134.03">
  <defs>
    <style>
      .cls-1 {
        fill: #f60;
      }
    </style>
  </defs>
  <g id="Capa_1-2" data-name="Capa 1">
    <path class="cls-1" d="m142.96,0h-8.93c-8.93,0-8.93,8.93-8.93,8.93L53.62,26.8H17.87S0,26.8,0,53.61s17.87,26.8,17.87,26.8v44.68c0,8.93,8.93,8.93,8.93,8.93h17.87c8.93,0,8.93-8.93,8.93-8.93v-26.81c10.73,0,15.02-6.45,16.73-11.6l54.75,20.54s0,8.93,8.93,8.93h8.93c8.93,0,8.93-8.93,8.93-8.93V8.93S151.9.02,142.96,0ZM8.93,53.61c0-17.87,8.93-17.87,8.93-17.87h35.74v35.74H17.87s-8.93,0-8.93-17.87Zm31.27,71.48h-8.93s-4.47,0-4.47-4.47v-40.21h17.87v40.21s0,4.47-4.47,4.47Zm13.4-35.74v-8.94l8.36,3.14c-.86,2.57-3,5.8-8.36,5.8Zm8.93-14.52v-3.35h0v-35.74h0v-2.23l62.55-15.63v80.42s-62.55-23.46-62.55-23.46Zm80.42,32.39h-8.93V8.93h8.93v98.29Z"/>
  </g>
</svg>