<?xml version="1.0" encoding="UTF-8"?>
<svg id="Capa_2" data-name="Capa 2" xmlns="http://www.w3.org/2000/svg" viewBox="0 0 125.09 134.49">
  <g id="Capa_1-2" data-name="Capa 1">
    <g>
      <path d="m44.44,62.55c7.4,0,13.4-6,13.4-13.4s-6-13.4-13.4-13.4-13.4,6-13.4,13.4,6,13.4,13.4,13.4Zm0-17.87c2.47,0,4.47,2,4.47,4.46s-2,4.47-4.47,4.47-4.46-2-4.46-4.47,2-4.46,4.46-4.46Z"/>
      <path d="m80.41,71.48c-7.4,0-13.4,6-13.4,13.4s6,13.4,13.4,13.4,13.4-6,13.4-13.4-6-13.4-13.4-13.4Zm0,17.88c-2.47,0-4.46-2-4.46-4.47s2-4.46,4.46-4.46,4.47,2,4.47,4.46-2,4.47-4.47,4.47Z"/>
      <rect x="24.8" y="62.78" width="75.5" height="8.94" transform="translate(-29.23 63.92) rotate(-45)"/>
      <path d="m123.64,71.9c1.89-1.78,1.94-4.93.12-6.79l-9.04-9.19c-1.21-1.23-1.65-3.11-1.1-4.81l4-12.67c.81-2.56-.61-5.32-3.06-5.94l-12.1-3.11c-1.62-.42-2.87-1.82-3.2-3.57l-2.42-13.12c-.49-2.65-3-4.28-5.41-3.51l-11.92,3.82c-1.6.51-3.33-.03-4.43-1.38l-8.2-10.06c-1.66-2.03-4.59-2.09-6.32-.13l-8.55,9.71c-1.15,1.3-2.9,1.77-4.48,1.2l-11.78-4.3c-2.38-.87-4.94.65-5.53,3.28l-2.89,13.01c-.39,1.74-1.69,3.09-3.33,3.44l-12.2,2.61c-2.47.52-3.98,3.22-3.26,5.81l3.55,12.82c.47,1.73-.03,3.59-1.28,4.77L1.45,62.59c-1.89,1.78-1.94,4.93-.12,6.79l9.03,9.19c1.21,1.23,1.65,3.11,1.11,4.81l-4.01,12.67c-.81,2.56.61,5.32,3.06,5.94l12.1,3.11c1.63.41,2.87,1.81,3.2,3.57l2.43,13.12c.49,2.65,3,4.28,5.41,3.51l11.93-3.82c1.6-.51,3.33.03,4.43,1.38l8.2,10.06c1.66,2.03,4.59,2.09,6.32.13l8.55-9.71c1.14-1.31,2.89-1.77,4.48-1.2l11.78,4.3c2.38.87,4.95-.65,5.53-3.28l2.89-13.01c.39-1.74,1.69-3.09,3.32-3.44l12.2-2.61c2.47-.52,3.98-3.22,3.26-5.81l-3.55-12.82c-.48-1.72.02-3.59,1.28-4.77l9.35-8.82Zm-15.34,2.47c-3.63,3.42-5.05,8.57-3.7,13.43l2.42,8.73-7.75,1.66c-4.96,1.06-8.89,5.01-10.01,10.07l-1.82,8.2-6.87-2.51c-1.41-.52-2.87-.78-4.37-.78-3.67,0-7.19,1.6-9.64,4.39l-4.98,5.65-4.79-5.87c-2.47-3.04-6.11-4.77-9.97-4.77-1.31,0-2.62.2-3.87.6l-6.99,2.24-1.54-8.32c-.94-5.08-4.71-9.18-9.61-10.44l-7.74-1.98,2.73-8.66c1.52-4.81.29-10-3.2-13.55l-6.2-6.31,6.4-6.03c3.63-3.42,5.05-8.57,3.71-13.43l-2.42-8.73,7.75-1.66c4.96-1.06,8.9-5.01,10.02-10.08l1.82-8.2,6.87,2.51c1.41.51,2.88.78,4.37.78,3.68,0,7.19-1.6,9.65-4.39l4.97-5.65,4.79,5.87c2.47,3.04,6.11,4.77,9.97,4.77,1.32,0,2.62-.2,3.88-.6l6.98-2.24,1.54,8.32c.94,5.08,4.71,9.18,9.6,10.44l7.74,1.98-2.73,8.66c-1.52,4.81-.29,10,3.2,13.55l6.2,6.31-6.4,6.03Z"/>
    </g>
  </g>
</svg>