<?xml version="1.0" encoding="UTF-8"?>
<svg id="Capa_2" data-name="Capa 2" xmlns="http://www.w3.org/2000/svg" viewBox="0 0 142.98 133.99">
  <defs>
    <style>
      .cls-1 {
        fill: #f60;
      }
    </style>
  </defs>
  <g id="Capa_1-2" data-name="Capa 1">
    <g>
      <path class="cls-1" d="m142.73,113.53l-12.56-71.95c-1.48-8.46-9.15-14.67-18.14-14.67h-13.72v-13.22c0-7.56-6.13-13.69-13.69-13.69h-26.23c-7.56,0-13.69,6.13-13.69,13.69v13.22h-13.73c-8.98,0-16.65,6.2-18.13,14.67L.26,113.53c-1.87,10.71,6.77,20.46,18.13,20.46h106.21c11.36,0,20-9.75,18.13-20.46ZM55.22,15.63c0-2.71,2.19-4.9,4.89-4.9h22.77c2.7,0,4.9,2.19,4.9,4.9v11.28h-32.56v-11.28Zm73.08,103.45c-1.68,1.99-4.22,3.13-6.96,3.13H21.66c-2.75,0-5.29-1.14-6.96-3.14-.86-1.01-2.22-3.16-1.7-6.11l11.8-67.53c.69-3.91,4.33-6.74,8.66-6.74h76.09c4.33,0,7.97,2.83,8.65,6.74l11.8,67.53c.51,2.95-.85,5.1-1.7,6.12Z"/>
      <polygon class="cls-1" points="59.53 77.15 52.86 80.41 52.86 83.43 67.49 83.43 35.31 107.26 83.65 83.43 89.77 80.41 89.77 77.15 75.95 77.15 107.7 53.64 59.53 77.15"/>
    </g>
  </g>
</svg>