<?xml version="1.0" encoding="UTF-8"?>
<svg id="Capa_2" data-name="Capa 2" xmlns="http://www.w3.org/2000/svg" viewBox="0 0 142.96 134.03">
  <g id="Capa_1-2" data-name="Capa 1">
    <path d="m10.2,134.03h122.56c5.63,0,10.2-4.57,10.2-10.2V37.01c0-5.63-4.57-10.2-10.2-10.2h-25.54v-8.93C107.22,0,80.42,0,80.42,0h-17.87s-26.81,0-26.81,17.87v8.93H10.2c-5.63,0-10.2,4.57-10.2,10.2v86.82c0,5.63,4.57,10.2,10.2,10.2Zm47.88-40.21c-5.43-4.08-8.94-10.56-8.94-17.87,0-7.98,4.19-14.98,10.48-18.93l2.92,23.4h17.87l2.92-23.39c6.29,3.95,10.48,10.94,10.48,18.92,0,7.31-3.51,13.8-8.93,17.87-2.6,1.96-5.63,3.35-8.93,4.02v27.15h-8.94v-18.08h0v-9.06c-3.3-.67-6.34-2.07-8.93-4.02Zm74.68,31.16h-47.88v-17.76s49.04,0,49.04,0v16.61c0,.64-.52,1.16-1.16,1.16ZM44.67,17.87c0-8.94,20.11-8.93,20.11-8.93h13.4s20.11,0,20.11,8.93v8.93h-53.61v-8.93ZM9.04,37.01c0-.64.52-1.16,1.16-1.16h122.56c.64,0,1.16.52,1.16,1.16v61.28h-40.55c5.8-5.68,9.4-13.59,9.4-22.35,0-12.62-7.47-23.5-18.24-28.44-2.69-1.24-5.57-2.11-8.6-2.53l-.5,9.01-.98,17.52h-5.96l-.97-17.52-.5-9.01c-3.03.43-5.92,1.29-8.6,2.53-10.76,4.95-18.24,15.83-18.24,28.45,0,8.76,3.6,16.68,9.4,22.35H9.04v-61.28Zm0,70.22h49.03v17.76H10.2c-.64,0-1.16-.52-1.16-1.16v-16.61Z"/>
  </g>
</svg>