<?xml version="1.0" encoding="UTF-8"?>
<svg id="Capa_2" data-name="Capa 2" xmlns="http://www.w3.org/2000/svg" viewBox="0 0 125.09 134.02">
  <g id="Capa_1-2" data-name="Capa 1">
    <g>
      <path d="m123.78,28.11c-.81-.81-1.92-1.31-3.16-1.31h-31.27V8.93c0-5.48-5.04-7.6-8.94-8.42-2.45-.51-4.46-.51-4.46-.51h-26.81s-2.01,0-4.47.52c-3.89.81-8.93,2.93-8.93,8.41v17.87H4.46c-2.46,0-4.46,2-4.46,4.47s2,4.46,4.46,4.47h13.41v80.41h0c0,.25.04,4.6,2.72,8.94,1.32,2.14,3.3,4.27,6.21,5.92,2.32,1.31,5.25,2.31,8.94,2.76,1.35.16,2.79.25,4.36.25h44.75s1.86,0,4.5-.43c2.56-.41,5.87-1.23,8.94-2.84,2.48-1.3,4.8-3.12,6.45-5.66,1.52-2.32,2.48-5.24,2.48-8.93h0V35.74h13.4c2.47,0,4.47-2,4.47-4.47,0-1.23-.5-2.35-1.31-3.16Zm-79.11-10.25v-4.47c0-4.46,4.47-4.46,4.47-4.46h26.81s4.46,0,4.46,4.46v13.41h-35.74v-8.94Zm53.62,26.81v67.01h0v4.47h-.35c-1.46,8.66-7.11,8.93-7.46,8.94h-55.87c-.35-.01-6-.28-7.46-8.94h-.35V35.74h71.49v8.93Z"/>
      <path d="m44.67,58.07v44.68c0,1.23-.5,2.35-1.31,3.16-.8.81-1.92,1.31-3.15,1.31-2.47,0-4.47-2-4.47-4.47v-44.68c0-2.46,2-4.46,4.47-4.46s4.46,1.99,4.46,4.46Z"/>
      <path d="m89.35,58.07v44.68c0,1.23-.5,2.35-1.31,3.16-.81.81-1.92,1.31-3.16,1.31-2.47,0-4.47-2-4.47-4.47v-44.68c0-2.46,2.01-4.46,4.47-4.46s4.47,1.99,4.47,4.46Z"/>
      <path d="m65.68,49.14v62.55c0,1.99-1.33,3.67-3.14,4.24-.42.13-.86.22-1.33.22-2.47,0-4.47-2-4.47-4.46v-62.55c0-1.24.5-2.35,1.31-3.16.81-.81,1.93-1.31,3.16-1.31.47,0,.91.09,1.33.23,1.81.57,3.14,2.24,3.14,4.24Z"/>
    </g>
  </g>
</svg>