<?xml version="1.0" encoding="UTF-8"?>
<svg id="Capa_2" data-name="Capa 2" xmlns="http://www.w3.org/2000/svg" viewBox="0 0 125.09 134.03">
  <g id="Capa_1-2" data-name="Capa 1">
    <g>
      <path d="m89.36,71.48s0,8.94-26.81,8.94-26.8-8.94-26.8-8.94c0,0-35.74,0-35.74,62.55h125.09c0-62.55-35.74-62.55-35.74-62.55Zm-66.09,14.34c3.07-2.96,6.1-4.56,8.44-5.42,4.69,3.61,13.68,8.96,30.85,8.96s26.16-5.34,30.85-8.96c2.33.86,5.36,2.46,8.43,5.42,5.86,5.65,13.05,16.13,14.33,39.28H8.93c1.28-23.15,8.48-33.63,14.33-39.28Z"/>
      <path d="m62.55,0C42.81,0,26.81,16,26.81,35.74s16.01,35.74,35.74,35.74,35.75-16.01,35.75-35.74S82.29,0,62.55,0Zm0,61.27c-14.09,0-25.52-11.43-25.52-25.53s11.43-25.53,25.52-25.53,25.53,11.43,25.53,25.53-11.43,25.53-25.53,25.53Z"/>
    </g>
  </g>
</svg>
