<svg width="107" height="100" viewBox="0 0 107 100" fill="none" xmlns="http://www.w3.org/2000/svg">
<path d="M7.61037 100H99.0505C103.253 100 106.661 96.5924 106.661 92.3896V27.6123C106.661 23.4095 103.253 20.0019 99.0505 20.0019H79.9981V13.3362C79.9981 0 59.9961 0 59.9961 0H46.6647C46.6647 0 26.6628 0 26.6628 13.3362V20.0019H7.61037C3.40756 20.0019 0 23.4095 0 27.6123V92.3896C0 96.5924 3.40756 100 7.61037 100ZM43.3295 70.0019C39.2809 66.9607 36.659 62.1217 36.659 56.6657C36.659 50.7133 39.7821 45.4887 44.4814 42.5439L46.6599 60.001H59.9961L62.1747 42.5487C66.8691 45.4935 69.9923 50.7133 69.9923 56.6657C69.9923 62.1168 67.3752 66.9607 63.3266 69.9971C61.3891 71.4575 59.1238 72.4986 56.6609 72.9998V93.2524H49.9952V79.7619V72.9998C47.5323 72.4986 45.267 71.4575 43.3295 70.0019ZM99.0505 93.2524H63.3314V79.9981H99.9132V92.3896C99.9132 92.8668 99.5277 93.2524 99.0505 93.2524ZM33.3285 13.3362C33.3285 6.67052 48.3324 6.67052 48.3324 6.67052H58.3285C58.3285 6.67052 73.3276 6.67052 73.3276 13.3362V20.0019H33.3285V13.3362ZM6.74764 27.6123C6.74764 27.1351 7.13322 26.7496 7.61037 26.7496H99.0505C99.5277 26.7496 99.9132 27.1351 99.9132 27.6123V73.3324H69.6597C73.9879 69.0958 76.6773 63.1916 76.6773 56.6561C76.6773 47.2383 71.1008 39.1218 63.0711 35.4347C61.0661 34.5094 58.9117 33.8635 56.6512 33.5454L56.2801 40.2641L55.5523 53.3353H51.1085L50.3856 40.2641L50.0145 33.5454C47.754 33.8635 45.5996 34.5094 43.5946 35.4299C35.5649 39.1218 29.9884 47.2383 29.9884 56.6561C29.9884 63.1916 32.6778 69.0958 37.0012 73.3324H6.74764V27.6123ZM6.74764 79.9981H43.3295V93.2524H7.61037C7.13322 93.2524 6.74764 92.8668 6.74764 92.3896V79.9981Z" fill="#666666"/>
</svg>
