<svg width="87" height="100" viewBox="0 0 87 100" fill="none" xmlns="http://www.w3.org/2000/svg">
<path d="M73.324 20.001H59.9933V6.6702C59.9933 0 46.6625 0 46.6625 0L13.2826 0.00963902C13.2055 0.00963902 0 0.019278 0 6.6702V73.3288C0 79.9942 13.3308 79.999 13.3308 79.999H26.6615V93.3298C26.6615 99.9952 39.9923 100 39.9923 100H66.6586L73.4059 93.2527L79.9075 86.7464L86.6548 79.9942V26.6712C86.6548 20.001 73.324 20.001 73.324 20.001ZM13.3308 73.2517C11.027 73.2373 8.14015 72.7216 6.74731 72.1288V7.86544C8.13051 7.27746 10.9981 6.77141 13.297 6.75695L46.6625 6.74731C48.9614 6.76177 51.8531 7.27746 53.2459 7.87026V20.0058H39.9441C39.867 20.0106 26.6615 20.0202 26.6615 26.6712H13.3308V33.3365H26.6615V46.6673H13.3308V53.3327H26.6615V73.2517H13.3308ZM79.9075 79.9942H73.324C73.324 79.9942 66.6586 79.9942 66.6586 86.6644V93.2527H39.9923C37.6886 93.2382 34.8017 92.7225 33.4088 92.1297V27.8664C34.792 27.2784 37.6596 26.7724 39.9586 26.7579H53.2459L59.9933 26.7531H73.324C75.6229 26.7627 78.5146 27.2784 79.9075 27.8712V79.9942Z" fill="#666666"/>
<path d="M58.9042 33.3364C49.7038 33.3364 42.2384 40.797 42.2384 49.9975C42.2384 54.6724 44.1662 58.8943 47.2699 61.9209L37.7466 76.3264L43.3035 79.9989L52.8702 65.5307C54.7402 66.2585 56.774 66.6633 58.9042 66.6633C68.1095 66.6633 75.5701 59.2027 75.5701 49.9975C75.5701 40.7922 68.1095 33.3364 58.9042 33.3364ZM58.9042 60.0028C53.3811 60.0028 48.9037 55.5254 48.9037 50.0023C48.9037 44.4791 53.3811 40.0018 58.9042 40.0018C64.4274 40.0018 68.9047 44.4791 68.9047 50.0023C68.9047 55.5254 64.4274 60.0028 58.9042 60.0028Z" fill="#666666"/>
</svg>
