<svg width="107" height="100" viewBox="0 0 107 100" fill="none" xmlns="http://www.w3.org/2000/svg">
<path d="M106.516 84.7315L101.281 54.7488L99.5788 45.0101L97.1393 31.0385C96.0353 24.718 90.3126 20.0849 83.6064 20.0849H73.3663V6.60013C73.3663 2.95536 70.411 0 66.7614 0H39.9558C36.3111 0 33.3557 2.95536 33.3557 6.60013V20.0849H23.1108C16.4046 20.0849 10.6819 24.718 9.57787 31.0337L7.13355 45.0149L5.43169 54.7536L0.191119 84.7315C-1.20701 92.7249 5.24367 100 13.724 100H92.9835C101.464 100 107.91 92.7249 106.516 84.7315ZM40.1053 6.74959H66.6167V19.9258H40.1053V6.74959ZM98.5134 90.7579C97.1827 92.344 95.1675 93.2504 92.9835 93.2504H13.724C11.5401 93.2504 9.52484 92.344 8.18938 90.7531C7.5096 89.9431 6.42967 88.2364 6.83947 85.8934L11.6702 58.2634L13.16 49.7445L16.2262 32.2004C16.771 29.0907 19.6637 26.8344 23.1108 26.8344H83.6064C87.0535 26.8344 89.9462 29.0907 90.491 32.2004L93.5524 49.7445L95.0421 58.2586L99.8681 85.8934C100.278 88.2364 99.1931 89.9479 98.5134 90.7579Z" fill="#666666"/>
<path d="M30.0144 33.3286C28.1728 33.3286 26.6782 34.8232 26.6782 36.6648C26.6782 38.5065 28.1728 40.0011 30.0144 40.0011C31.8561 40.0011 33.3507 38.5065 33.3507 36.6648C33.3507 34.8232 31.8561 33.3286 30.0144 33.3286Z" fill="#666666"/>
<path d="M53.3587 33.3286C51.517 33.3286 50.0225 34.8232 50.0225 36.6648C50.0225 38.5065 51.517 40.0011 53.3587 40.0011C55.2004 40.0011 56.6949 38.5065 56.6949 36.6648C56.6949 34.8232 55.2004 33.3286 53.3587 33.3286Z" fill="#666666"/>
<path d="M76.6878 33.3286C74.8461 33.3286 73.3516 34.8232 73.3516 36.6648C73.3516 38.5065 74.8461 40.0011 76.6878 40.0011C78.5295 40.0011 80.024 38.5065 80.024 36.6648C80.024 34.8232 78.5295 33.3286 76.6878 33.3286Z" fill="#666666"/>
</svg>
