<svg width="414" height="720" viewBox="0 0 414 720" fill="none" xmlns="http://www.w3.org/2000/svg">
<path d="M414 16V704C414 709.59 411.13 714.51 406.79 717.37C404.27 719.03 401.25 720 398 720H16C7.16 720 0 712.84 0 704V16C0 7.16 7.16 0 16 0H398C406.84 0 414 7.16 414 16Z" fill="#06061C"/>
<path style="mix-blend-mode:multiply" opacity="0.34" d="M414 16V704C414 709.59 411.13 714.51 406.79 717.37C404.27 719.03 401.25 720 398 720H16C7.16 720 0 712.84 0 704V16C0 7.16 7.16 0 16 0H398C406.84 0 414 7.16 414 16Z" fill="url(#paint0_linear_1252_5740)"/>
<g style="mix-blend-mode:color-dodge">
<path d="M404.163 525.779L394.525 535.417L404.163 545.055L413.801 535.417L404.163 525.779Z" fill="#333399"/>
<path d="M367.164 506.507L357.526 516.145L367.164 525.782L376.802 516.145L367.164 506.507Z" fill="#333399"/>
<path d="M330.168 525.775L320.53 535.413L330.168 545.051L339.806 535.413L330.168 525.775Z" fill="#333399"/>
<path d="M293.169 506.503L283.531 516.141L293.169 525.779L302.807 516.141L293.169 506.503Z" fill="#333399"/>
<path d="M256.172 525.771L246.534 535.409L256.172 545.047L265.809 535.409L256.172 525.771Z" fill="#333399"/>
<path d="M219.173 506.509L209.535 516.146L219.173 525.784L228.81 516.147L219.173 506.509Z" fill="#333399"/>
<path d="M182.166 525.777L172.528 535.415L182.166 545.053L191.804 535.415L182.166 525.777Z" fill="#333399"/>
<path d="M145.167 506.504L135.529 516.142L145.167 525.779L154.805 516.142L145.167 506.504Z" fill="#333399"/>
<path d="M108.17 525.773L98.5317 535.411L108.17 545.049L117.807 535.411L108.17 525.773Z" fill="#333399"/>
<path d="M71.1711 506.5L61.5332 516.138L71.1711 525.776L80.809 516.138L71.1711 506.5Z" fill="#333399"/>
<path d="M34.1637 525.779L24.5259 535.417L34.1637 545.055L43.8016 535.417L34.1637 525.779Z" fill="#333399"/>
<path d="M6.8 516.14L0 522.94V509.34L6.8 516.14Z" fill="#333399"/>
<path d="M414 586.729V597.229L406.89 604.329L394.53 591.979L406.89 579.619L414 586.729Z" fill="#333399"/>
<path d="M369.885 554.901L357.525 567.261L369.885 579.621L382.245 567.261L369.885 554.901Z" fill="#333399"/>
<path d="M332.892 579.613L320.532 591.974L332.892 604.334L345.252 591.974L332.892 579.613Z" fill="#333399"/>
<path d="M295.889 554.897L283.529 567.257L295.889 579.617L308.249 567.257L295.889 554.897Z" fill="#333399"/>
<path d="M258.896 579.619L246.536 591.979L258.896 604.34L271.256 591.979L258.896 579.619Z" fill="#333399"/>
<path d="M221.893 554.893L209.533 567.253L221.893 579.613L234.254 567.253L221.893 554.893Z" fill="#333399"/>
<path d="M184.89 579.615L172.53 591.976L184.89 604.336L197.25 591.976L184.89 579.615Z" fill="#333399"/>
<path d="M147.888 554.899L135.527 567.259L147.888 579.619L160.248 567.259L147.888 554.899Z" fill="#333399"/>
<path d="M110.894 579.611L98.5337 591.972L110.894 604.332L123.254 591.972L110.894 579.611Z" fill="#333399"/>
<path d="M73.8915 554.895L61.5312 567.255L73.8915 579.615L86.2517 567.255L73.8915 554.895Z" fill="#333399"/>
<path d="M36.8881 579.617L24.5278 591.978L36.888 604.338L49.2483 591.978L36.8881 579.617Z" fill="#333399"/>
<path d="M12.25 567.26L0 579.51V555.01L12.25 567.26Z" fill="#333399"/>
<path d="M414 637.85V659.23L409.61 663.62L394.53 648.54L409.61 633.46L414 637.85Z" fill="#333399"/>
<path d="M372.613 603.293L357.53 618.376L372.613 633.459L387.695 618.376L372.613 603.293Z" fill="#333399"/>
<path d="M335.616 633.453L320.534 648.535L335.616 663.618L350.699 648.535L335.616 633.453Z" fill="#333399"/>
<path d="M298.617 603.299L283.534 618.382L298.617 633.464L313.699 618.382L298.617 603.299Z" fill="#333399"/>
<path d="M261.62 633.458L246.538 648.541L261.62 663.624L276.703 648.541L261.62 633.458Z" fill="#333399"/>
<path d="M224.621 603.294L209.539 618.377L224.621 633.46L239.704 618.377L224.621 603.294Z" fill="#333399"/>
<path d="M187.614 633.455L172.532 648.537L187.614 663.62L202.697 648.537L187.614 633.455Z" fill="#333399"/>
<path d="M150.615 603.3L135.533 618.383L150.615 633.465L165.698 618.383L150.615 603.3Z" fill="#333399"/>
<path d="M113.619 633.46L98.5361 648.543L113.619 663.626L128.701 648.543L113.619 633.46Z" fill="#333399"/>
<path d="M76.6192 603.296L61.5366 618.379L76.6192 633.462L91.7018 618.379L76.6192 603.296Z" fill="#333399"/>
<path d="M39.6124 633.455L24.5298 648.538L39.6124 663.621L54.695 648.538L39.6124 633.455Z" fill="#333399"/>
<path d="M17.69 618.38L2.61 633.46L0 630.85V605.91L2.61 603.3L17.69 618.38Z" fill="#333399"/>
<path d="M414 688.969V703.999C414 709.589 411.13 714.509 406.79 717.369L394.53 705.099L412.33 687.299L414 688.969Z" fill="#333399"/>
<path d="M375.326 651.694L357.521 669.499L375.326 687.304L393.131 669.499L375.326 651.694Z" fill="#333399"/>
<path d="M356.13 705.099L341.24 719.999H335.42L320.53 705.099L338.33 687.299L356.13 705.099Z" fill="#333399"/>
<path d="M301.33 651.7L283.525 669.505L301.33 687.31L319.135 669.505L301.33 651.7Z" fill="#333399"/>
<path d="M282.13 705.099L267.24 719.999H261.42L246.53 705.099L264.33 687.299L282.13 705.099Z" fill="#333399"/>
<path d="M227.335 651.695L209.53 669.5L227.335 687.305L245.14 669.5L227.335 651.695Z" fill="#333399"/>
<path d="M208.13 705.099L193.24 719.999H187.42L172.53 705.099L190.33 687.299L208.13 705.099Z" fill="#333399"/>
<path d="M153.329 651.691L135.524 669.496L153.329 687.301L171.134 669.496L153.329 651.691Z" fill="#333399"/>
<path d="M134.13 705.099L119.24 719.999H113.42L98.5298 705.099L116.33 687.299L134.13 705.099Z" fill="#333399"/>
<path d="M79.3328 651.697L61.5278 669.502L79.3328 687.307L97.1378 669.502L79.3328 651.697Z" fill="#333399"/>
<path d="M60.1298 705.099L45.2398 719.999H39.4198L24.5298 705.099L42.3298 687.299L60.1298 705.099Z" fill="#333399"/>
<path d="M23.13 669.499L5.33 687.299L0 681.969V657.029L5.33 651.699L23.13 669.499Z" fill="#333399"/>
</g>
<g style="mix-blend-mode:color-dodge">
<path d="M9.84294 174.956L0.205078 184.594L9.84295 194.232L19.4808 184.594L9.84294 174.956Z" fill="#333399"/>
<path d="M46.842 194.228L37.2041 203.866L46.842 213.504L56.4798 203.866L46.842 194.228Z" fill="#333399"/>
<path d="M83.839 174.96L74.2012 184.598L83.839 194.236L93.4769 184.598L83.839 174.96Z" fill="#333399"/>
<path d="M120.838 194.222L111.2 203.86L120.838 213.498L130.475 203.86L120.838 194.222Z" fill="#333399"/>
<path d="M157.835 174.954L148.197 184.592L157.835 194.23L167.473 184.592L157.835 174.954Z" fill="#333399"/>
<path d="M194.834 194.227L185.196 203.865L194.834 213.503L204.472 203.865L194.834 194.227Z" fill="#333399"/>
<path d="M231.84 174.958L222.203 184.596L231.841 194.234L241.478 184.596L231.84 174.958Z" fill="#333399"/>
<path d="M268.84 194.222L259.202 203.859L268.84 213.497L278.477 203.859L268.84 194.222Z" fill="#333399"/>
<path d="M305.837 174.952L296.199 184.59L305.837 194.228L315.474 184.59L305.837 174.952Z" fill="#333399"/>
<path d="M342.836 194.225L333.198 203.863L342.836 213.501L352.473 203.863L342.836 194.225Z" fill="#333399"/>
<path d="M379.842 174.956L370.205 184.594L379.842 194.232L389.48 184.594L379.842 174.956Z" fill="#333399"/>
<path d="M407.2 203.86L414 197.06V210.66L407.2 203.86Z" fill="#333399"/>
<path d="M0 133.27V122.77L7.11 115.67L19.47 128.02L7.11 140.38L0 133.27Z" fill="#333399"/>
<path d="M44.1141 140.382L31.7539 152.742L44.1141 165.102L56.4744 152.742L44.1141 140.382Z" fill="#333399"/>
<path d="M81.1141 115.667L68.7539 128.027L81.1141 140.388L93.4744 128.027L81.1141 115.667Z" fill="#333399"/>
<path d="M118.11 140.387L105.75 152.747L118.11 165.107L130.47 152.747L118.11 140.387Z" fill="#333399"/>
<path d="M155.11 115.671L142.75 128.031L155.11 140.391L167.47 128.031L155.11 115.671Z" fill="#333399"/>
<path d="M192.106 140.381L179.746 152.741L192.106 165.101L204.466 152.741L192.106 140.381Z" fill="#333399"/>
<path d="M229.116 115.665L216.756 128.025L229.116 140.386L241.476 128.025L229.116 115.665Z" fill="#333399"/>
<path d="M266.112 140.385L253.751 152.745L266.112 165.105L278.472 152.745L266.112 140.385Z" fill="#333399"/>
<path d="M303.112 115.669L290.752 128.029L303.112 140.39L315.472 128.029L303.112 115.669Z" fill="#333399"/>
<path d="M340.108 140.379L327.748 152.739L340.108 165.099L352.468 152.739L340.108 140.379Z" fill="#333399"/>
<path d="M377.118 115.673L364.758 128.033L377.118 140.393L389.478 128.033L377.118 115.673Z" fill="#333399"/>
<path d="M401.75 152.739L414 140.489V164.989L401.75 152.739Z" fill="#333399"/>
<path d="M0 82.1509V60.7709L4.39 56.3809L19.47 71.4609L4.39 86.5409L0 82.1509Z" fill="#333399"/>
<path d="M41.4005 86.5366L26.3179 101.619L41.4005 116.702L56.483 101.619L41.4005 86.5366Z" fill="#333399"/>
<path d="M78.397 56.3774L63.3145 71.46L78.397 86.5425L93.4796 71.46L78.397 56.3774Z" fill="#333399"/>
<path d="M115.397 86.5414L100.314 101.624L115.397 116.707L130.479 101.624L115.397 86.5414Z" fill="#333399"/>
<path d="M152.393 56.3813L137.311 71.4639L152.393 86.5465L167.476 71.4639L152.393 56.3813Z" fill="#333399"/>
<path d="M189.392 86.5356L174.31 101.618L189.392 116.701L204.475 101.618L189.392 86.5356Z" fill="#333399"/>
<path d="M226.399 56.3754L211.316 71.458L226.399 86.5406L241.482 71.458L226.399 56.3754Z" fill="#333399"/>
<path d="M263.398 86.5395L248.315 101.622L263.398 116.705L278.481 101.622L263.398 86.5395Z" fill="#333399"/>
<path d="M300.395 56.3803L285.312 71.4629L300.395 86.5455L315.477 71.4629L300.395 56.3803Z" fill="#333399"/>
<path d="M337.394 86.5434L322.312 101.626L337.394 116.709L352.477 101.626L337.394 86.5434Z" fill="#333399"/>
<path d="M374.4 56.3745L359.318 71.457L374.4 86.5396L389.483 71.457L374.4 56.3745Z" fill="#333399"/>
<path d="M396.31 101.62L411.39 86.54L414 89.15V114.09L411.39 116.7L396.31 101.62Z" fill="#333399"/>
<path d="M0 31.0299V15.9999C0 10.4099 2.87 5.48988 7.21 2.62988L19.47 14.8999L1.67 32.6999L0 31.0299Z" fill="#333399"/>
<path d="M38.6726 32.6902L20.8677 50.4951L38.6726 68.3001L56.4776 50.4951L38.6726 32.6902Z" fill="#333399"/>
<path d="M57.8701 14.9L72.7601 0H78.5801L93.4701 14.9L75.6701 32.7L57.8701 14.9Z" fill="#333399"/>
<path d="M112.669 32.6941L94.8638 50.499L112.669 68.304L130.474 50.499L112.669 32.6941Z" fill="#333399"/>
<path d="M131.87 14.9L146.76 0H152.58L167.47 14.9L149.67 32.7L131.87 14.9Z" fill="#333399"/>
<path d="M186.675 32.698L168.87 50.5029L186.675 68.3079L204.48 50.5029L186.675 32.698Z" fill="#333399"/>
<path d="M205.87 14.9L220.76 0H226.58L241.47 14.9L223.67 32.7L205.87 14.9Z" fill="#333399"/>
<path d="M260.67 32.6921L242.865 50.4971L260.67 68.302L278.475 50.4971L260.67 32.6921Z" fill="#333399"/>
<path d="M279.87 14.9L294.76 0H300.58L315.47 14.9L297.67 32.7L279.87 14.9Z" fill="#333399"/>
<path d="M334.666 32.697L316.861 50.502L334.666 68.3069L352.471 50.5019L334.666 32.697Z" fill="#333399"/>
<path d="M353.87 14.9L368.76 0H374.58L389.47 14.9L371.67 32.7L353.87 14.9Z" fill="#333399"/>
<path d="M390.87 50.5002L408.67 32.7002L414 38.0302V62.9702L408.67 68.3002L390.87 50.5002Z" fill="#333399"/>
</g>
<path d="M249.132 377.7C249.132 386.388 247.274 394.567 243.999 401.729C243.999 401.735 243.999 401.741 243.993 401.746C242.427 405.176 240.529 408.371 238.357 411.275C231.784 420.071 222.673 426.21 212.356 428.125L207.858 421.374L197.918 406.468C200.502 406.165 203.023 405.69 205.463 405.067C211.745 403.461 217.523 400.849 222.536 397.442C225.971 395.11 229.041 392.407 231.676 389.4C234.945 385.674 237.534 381.484 239.289 376.963C240.381 374.156 241.147 371.219 241.552 368.184C241.564 368.104 241.575 368.023 241.587 367.943C241.587 367.943 241.587 367.943 241.587 367.938C241.587 367.921 241.587 367.903 241.593 367.886C241.798 366.314 241.907 364.714 241.907 363.085C241.907 360.844 241.707 358.655 241.318 356.529C241.29 356.386 241.267 356.243 241.238 356.1C241.238 356.083 241.238 356.072 241.232 356.055C241.232 356.043 241.232 356.032 241.227 356.02C241.227 356.009 241.227 355.998 241.221 355.986C241.204 355.906 241.187 355.826 241.175 355.746C240.712 353.42 240.038 351.156 239.169 348.967C237.426 344.589 234.894 340.525 231.716 336.896C234.716 339.536 237.42 342.623 239.746 346.069C243.159 351.116 245.771 356.935 247.365 363.257C247.971 365.663 248.429 368.138 248.726 370.67C248.994 372.968 249.137 375.311 249.137 377.695L249.132 377.7Z" fill="#FB9808"/>
<path d="M270.983 363.091V363.131C270.983 363.32 270.983 363.508 270.983 363.697C270.846 379.038 265.439 393.127 256.488 404.227C245.856 417.414 230.224 426.393 212.471 428.291L212.362 428.125C222.679 426.21 231.79 420.071 238.363 411.275C240.535 408.371 242.427 405.176 243.999 401.747C244.005 401.747 244.016 401.741 244.022 401.735H244.005C247.28 394.568 249.137 386.389 249.137 377.701C249.137 375.317 248.994 372.974 248.726 370.676C248.429 368.138 247.971 365.663 247.365 363.263C245.771 356.935 243.159 351.117 239.746 346.07C237.42 342.623 234.716 339.537 231.716 336.896C227.989 333.609 223.799 331.009 219.278 329.248C214.934 327.556 210.282 326.636 205.446 326.636C200.611 326.636 195.712 327.602 191.265 329.385C187.024 331.083 183.075 333.524 179.537 336.582C182.114 333.689 185.098 331.077 188.425 328.82C193.432 325.413 199.205 322.801 205.48 321.195C207.91 320.572 210.413 320.103 212.985 319.8C215.294 319.526 217.649 319.383 220.044 319.383C228.732 319.383 236.911 321.252 244.067 324.538C244.067 324.538 244.067 324.538 244.073 324.538C247.56 326.145 250.806 328.088 253.75 330.317C262.432 336.896 268.485 345.978 270.371 356.249C270.783 358.479 270.994 360.759 271 363.085L270.983 363.091Z" fill="url(#paint1_linear_1252_5740)"/>
<path d="M210.082 313.57C207.515 313.873 205.012 314.342 202.577 314.965C196.301 316.571 190.528 319.183 185.521 322.59C182.194 324.847 179.211 327.459 176.633 330.352C173.278 334.118 170.62 338.371 168.82 342.96C167.682 345.858 166.893 348.893 166.493 352.031C166.482 352.089 166.476 352.146 166.47 352.203C166.448 352.357 166.43 352.511 166.413 352.672C166.396 352.826 166.379 352.98 166.362 353.14C166.345 353.295 166.333 353.443 166.316 353.603C166.305 353.735 166.293 353.866 166.282 353.998C166.276 354.072 166.27 354.152 166.265 354.226V354.243C166.253 354.375 166.247 354.512 166.236 354.643V354.661C166.225 354.844 166.213 355.032 166.207 355.215C166.207 355.306 166.202 355.392 166.196 355.484C166.196 355.569 166.19 355.661 166.185 355.752C166.185 355.769 166.185 355.787 166.185 355.804C166.185 355.884 166.185 355.964 166.179 356.05C166.179 356.147 166.179 356.25 166.179 356.347C166.179 356.524 166.179 356.695 166.179 356.873V356.913C166.179 357.067 166.179 357.221 166.179 357.381C166.179 357.524 166.185 357.673 166.19 357.816C166.19 357.97 166.202 358.13 166.207 358.284C166.207 358.422 166.219 358.559 166.225 358.696C166.419 362.954 167.328 367.052 168.848 370.916C170.649 375.495 173.306 379.73 176.662 383.491C173.501 380.787 170.66 377.592 168.231 374.014C164.841 369.03 162.235 363.291 160.623 357.044C159.983 354.569 159.503 352.009 159.194 349.391C158.92 347.087 158.783 344.738 158.783 342.349C158.783 333.667 160.64 325.493 163.927 318.337C163.955 318.32 163.99 318.308 164.018 318.297L163.95 318.286C165.522 314.868 167.413 311.684 169.585 308.792C176.176 299.989 185.321 293.856 195.666 291.953L200.09 298.589L210.082 313.57Z" fill="#FB9808"/>
<path d="M163.984 395.504C163.984 395.504 163.95 395.487 163.933 395.481L163.944 395.419C163.955 395.447 163.972 395.476 163.984 395.504Z" fill="#29AAE1" stroke="white" stroke-miterlimit="10"/>
<path d="M228.789 383.17C226.154 386.177 223.079 388.875 219.65 391.212C214.637 394.619 208.858 397.237 202.577 398.837C200.13 399.46 197.616 399.929 195.032 400.238C192.734 400.512 190.391 400.649 188.007 400.649C179.325 400.649 171.146 398.786 163.984 395.499C163.967 395.471 163.955 395.442 163.944 395.414L163.933 395.476C160.572 393.927 157.428 392.064 154.57 389.938C145.711 383.336 139.532 374.157 137.629 363.754C137.246 361.708 137.034 359.604 137 357.472C137 357.284 137 357.095 137 356.907V356.867C137 356.672 137 356.472 137.006 356.278C137.006 356.244 137.006 356.209 137.006 356.175C137.166 340.885 142.544 326.853 151.455 315.776C162.081 302.573 177.719 293.57 195.472 291.667L195.666 291.953C185.315 293.856 176.176 299.989 169.58 308.78C167.408 311.672 165.516 314.856 163.944 318.274C163.933 318.291 163.927 318.308 163.915 318.331C160.635 325.487 158.771 333.661 158.771 342.343C158.771 344.732 158.914 347.081 159.183 349.385C159.491 352.008 159.972 354.563 160.612 357.038C162.218 363.28 164.824 369.018 168.219 374.002C170.649 377.58 173.489 380.77 176.65 383.479C180.28 386.588 184.338 389.063 188.699 390.755C193.049 392.441 197.701 393.362 202.537 393.362C207.372 393.362 212.259 392.401 216.706 390.629C221.084 388.886 225.154 386.348 228.784 383.176L228.789 383.17Z" fill="url(#paint2_linear_1252_5740)"/>
<defs>
<linearGradient id="paint0_linear_1252_5740" x1="207" y1="720" x2="207" y2="0" gradientUnits="userSpaceOnUse">
<stop stop-color="white"/>
<stop offset="1"/>
</linearGradient>
<linearGradient id="paint1_linear_1252_5740" x1="249.154" y1="407.102" x2="209.95" y2="324.476" gradientUnits="userSpaceOnUse">
<stop stop-color="#FC7F09"/>
<stop offset="0.75" stop-color="#FC340B"/>
<stop offset="1" stop-color="#FD1A0D"/>
</linearGradient>
<linearGradient id="paint2_linear_1252_5740" x1="157.702" y1="313.976" x2="202.497" y2="394.093" gradientUnits="userSpaceOnUse">
<stop stop-color="#FC7F09"/>
<stop offset="1" stop-color="#FD1A0D"/>
</linearGradient>
</defs>
</svg>
